<svg version="1.2" xmlns="http://www.w3.org/2000/svg" viewBox="0 0 853 247" width="853" height="247"><style></style><path  d="m116.2 247h-114.7q-1.4 0-1.4-1.8l0.4-243.5q0-1.8 1.8-1.8h39.4q1.7 0 1.7 1.8l-0.3 201.6h73.1q1.8 0 1.8 1.8v40.1q0 1.8-1.8 1.8zm12.8-1.8l44-243.9q0.4-1.4 1.8-1.4h51.5q1.4 0 1.7 1.4l42.3 243.9q0.3 1.8-1.4 1.8h-39.4q-1.5 0-1.8-1.8l-3.9-25.9h-48.3l-3.9 25.9q-0.4 1.8-1.8 1.8h-39.4q-1.4 0-1.4-1.8zm69.6-163.6l-16 99.7h34.1l-14.6-99.7-2.1-13.2zm213.3 165.5h-132.4q-1.7 0-1.7-1.8l0.3-38.7 87-166.1h-82.4q-1.4 0-1.4-1.5v-37.2q0-1.8 1.4-1.8h128.5q1.8 0 1.8 1.8v38.3l-86.6 165.4h85.5q1.5 0 1.5 1.8l0.3 38q0 1.8-1.8 1.8zm140.3 0h-114.7q-1.4 0-1.4-1.8l0.3-243.9q0-1.4 1.5-1.4h113.9q1.4 0 1.4 1.8v39.7q0 1.4-1.4 1.4h-72.8v55.4h72.8q1.4 0 1.4 1.4l0.4 40.2q0 1.4-1.4 1.4h-73.2v62.1h73.2q1.4 0 1.4 1.8v40.4q0 1.5-1.4 1.5zm74.5 0h-40.1q-1.4 0-1.4-1.8l0.7-243.9q0-1.4 1.4-1.4h71.7q19.2 0 35.2 9.6 16.3 9.2 25.9 25.2 9.6 15.6 9.6 35.5 0 13.1-3.9 23.8-3.9 10.3-9.3 17.7-5.3 7.1-9.6 10.7 19.2 21.3 19.2 50l0.4 72.8q0 1.8-1.8 1.8h-40.1q-1.4 0-1.4-1.1v-73.5q0-12.8-9.3-22-8.8-9.6-22-9.6h-23.4l-0.4 104.4q0 1.8-1.4 1.8zm1.8-204.5v55.7h30.5q11 0 19.5-8.1 8.6-8.2 8.6-19.9 0-11.4-8.6-19.6-8.1-8.1-19.5-8.1zm222.3 204.5h-40.2q-1.7 0-1.7-1.8l0.3-243.9q0-1.4 1.4-1.4h39.8q1.4 0 1.4 1.4l0.4 243.9q0 1.8-1.4 1.8z"/></svg>