<svg width="140" height="58" viewBox="0 0 140 58" fill="none" xmlns="http://www.w3.org/2000/svg">
<g clip-path="url(#clip0_109_3208)">
<path d="M25.0945 10.5918V11.4823L4.45768 46.8155H0V46.0018L18.1207 14.8879H0.789899V10.5918H25.0945ZM10.4261 42.5194H25.5999V46.8155H8.19728L10.4261 42.5194V42.5194Z" fill="#00FFC0"/>
<path d="M31.4938 10.5918H35.8797V25.776L31.4938 29.0365V10.5918ZM31.4938 46.8126V31.9243L35.8797 28.5898V46.8126H31.4938Z" fill="#00FFC0"/>
<path d="M46.0186 10.5918L55.8702 35.8505L53.8568 42.8153L41.2018 10.5918H46.0186ZM68.597 10.5918H73.4137L59.4634 46.8126H55.4366L57.3782 39.9247L68.597 10.5918Z" fill="#00FFC0"/>
<path d="M80.462 28.7406C80.462 31.4093 81.0613 33.802 82.26 35.9273C82.5003 36.3228 82.6439 36.5703 82.6908 36.667C81.8733 37.8051 81.0116 39.1849 80.1002 40.8152C79.4291 40.0242 78.8297 39.1622 78.3022 38.2233C76.7196 35.4095 75.9297 32.2486 75.9297 28.7406C75.9297 25.2326 76.7196 22.0006 78.3022 19.1839C79.8351 16.3702 82.0169 14.1225 84.8451 12.4439C87.6733 10.8137 90.8384 10 94.3377 10C97.837 10 100.977 10.8137 103.756 12.4439C103.852 12.4951 103.924 12.5435 103.971 12.5919C102.629 13.8266 101.455 14.9135 100.447 15.8523C98.5772 14.9163 96.5389 14.444 94.335 14.444C91.6974 14.444 89.3249 15.0614 87.2176 16.2962C85.0605 17.5822 83.4062 19.2864 82.2545 21.406C81.0558 23.5796 80.4565 26.0235 80.4565 28.7378L80.462 28.7406ZM110.304 19.1839C111.887 21.9977 112.677 25.1842 112.677 28.7406C112.677 32.297 111.887 35.4067 110.304 38.2233C108.771 41.0371 106.589 43.2847 103.761 44.9633C100.98 46.5935 97.8398 47.4072 94.3432 47.4072C90.8467 47.4072 87.6788 46.5935 84.8506 44.9633C84.2265 44.5195 83.6299 44.0984 83.0526 43.7029C83.6741 42.619 84.4667 41.3102 85.4251 39.7767C85.7593 40.121 86.3614 40.542 87.2231 41.0342C89.3304 42.3202 91.7056 42.9604 94.3405 42.9604C96.9753 42.9604 99.229 42.343 101.386 41.1082C103.543 39.8734 105.22 38.1692 106.418 35.9984C107.617 33.8248 108.216 31.4065 108.216 28.7378C108.216 26.0691 107.617 23.5796 106.418 21.406C105.65 20.0233 104.717 18.8625 103.612 17.9236C103.946 17.5793 104.488 17.0473 105.231 16.3303C105.974 15.6162 106.512 15.0842 106.849 14.7371C108.144 15.8723 109.293 17.3546 110.301 19.1811L110.304 19.1839Z" fill="#00FFC0"/>
<path d="M123.964 42.4426H140V46.8126H119.579V10.5918H139.497V14.9619H123.964V42.4426ZM138.202 30.294H126.193V26.0719H138.202V30.294Z" fill="#00FFC0"/>
<path d="M94.5394 32.1035C96.2294 32.1035 97.5995 30.6922 97.5995 28.9512C97.5995 27.2102 96.2294 25.7988 94.5394 25.7988C92.8493 25.7988 91.4792 27.2102 91.4792 28.9512C91.4792 30.6922 92.8493 32.1035 94.5394 32.1035Z" fill="#00FFC0"/>
</g>
<defs>
<clipPath id="clip0_109_3208">
<rect width="140" height="58" fill="white"/>
</clipPath>
</defs>
</svg>
